<svg xmlns="http://www.w3.org/2000/svg" viewBox="0 0 1254 1254" fill="#000" role="img" aria-label="S-SALAAD">
  <g id="package">
    <rect x="366" y="120" width="14" height="49"/>
    <rect x="495" y="120" width="13" height="49"/>
    <rect x="620" y="120" width="14" height="49"/>
    <rect x="746" y="120" width="14" height="49"/>
    <rect x="874" y="120" width="14" height="49"/>
    <rect x="201" y="169" width="852" height="14"/>
    <rect x="201" y="183" width="15" height="20"/>
    <rect x="1038" y="183" width="15" height="20"/>
    <rect x="167" y="203" width="49" height="14"/>
    <rect x="1038" y="203" width="50" height="14"/>
    <rect x="167" y="217" width="19" height="1"/>
    <rect x="1068" y="217" width="20" height="1"/>
    <rect x="229" y="232" width="796" height="6"/>
    <rect x="229" y="238" width="5" height="80"/>
    <rect x="1019" y="238" width="6" height="80"/>
    <rect x="167" y="218" width="14" height="110"/>
    <rect x="1073" y="218" width="15" height="110"/>
    <rect x="167" y="340" width="14" height="120"/>
    <rect x="1073" y="340" width="15" height="120"/>
    <rect x="166" y="471" width="15" height="119"/>
    <rect x="1073" y="472" width="15" height="119"/>
    <rect x="167" y="603" width="14" height="118"/>
    <rect x="1073" y="603" width="15" height="118"/>
    <rect x="499" y="721" width="28" height="28"/>
    <rect x="728" y="721" width="27" height="28"/>
    <rect x="167" y="734" width="14" height="118"/>
    <rect x="1073" y="734" width="15" height="118"/>
    <rect x="229" y="645" width="5" height="337"/>
    <rect x="1020" y="645" width="5" height="337"/>
    <rect x="229" y="982" width="378" height="6"/>
    <rect x="810" y="982" width="215" height="6"/>
    <rect x="166" y="864" width="15" height="146"/>
    <rect x="1073" y="864" width="15" height="146"/>
    <rect x="167" y="1010" width="49" height="15"/>
    <rect x="1038" y="1010" width="50" height="15"/>
    <rect x="201" y="1025" width="15" height="21"/>
    <rect x="1038" y="1025" width="15" height="21"/>
    <rect x="201" y="1046" width="726" height="1"/>
    <rect x="932" y="1046" width="35" height="1"/>
    <rect x="981" y="1046" width="9" height="1"/>
    <rect x="993" y="1046" width="60" height="1"/>
    <rect x="201" y="1047" width="852" height="14"/>
    <rect x="366" y="1061" width="14" height="48"/>
    <rect x="495" y="1061" width="13" height="48"/>
    <rect x="620" y="1061" width="14" height="48"/>
    <rect x="746" y="1061" width="14" height="48"/>
    <rect x="874" y="1061" width="14" height="48"/>
    <rect x="352" y="79" width="42" height="41"/>
    <rect x="480" y="79" width="42" height="41"/>
    <rect x="606" y="79" width="42" height="41"/>
    <rect x="733" y="79" width="41" height="41"/>
    <rect x="860" y="79" width="42" height="41"/>
    <rect x="352" y="1109" width="42" height="42"/>
    <rect x="480" y="1109" width="42" height="42"/>
    <rect x="606" y="1109" width="42" height="42"/>
    <rect x="733" y="1109" width="41" height="42"/>
    <rect x="860" y="1109" width="42" height="42"/>
    <rect x="69" y="313" width="43" height="42"/>
    <rect x="112" y="328" width="69" height="12"/>
    <rect x="1073" y="328" width="70" height="12"/>
    <rect x="1143" y="313" width="43" height="42"/>
    <rect x="69" y="445" width="43" height="42"/>
    <rect x="112" y="460" width="69" height="11"/>
    <rect x="1073" y="460" width="70" height="11"/>
    <rect x="1143" y="445" width="43" height="42"/>
    <rect x="69" y="575" width="43" height="43"/>
    <rect x="112" y="591" width="69" height="12"/>
    <rect x="1073" y="591" width="70" height="12"/>
    <rect x="1143" y="575" width="43" height="43"/>
    <rect x="69" y="705" width="43" height="44"/>
    <rect x="112" y="721" width="69" height="13"/>
    <rect x="1073" y="721" width="70" height="13"/>
    <rect x="1143" y="705" width="43" height="44"/>
    <rect x="69" y="837" width="43" height="42"/>
    <rect x="112" y="852" width="69" height="12"/>
    <rect x="1073" y="852" width="70" height="12"/>
    <rect x="1143" y="837" width="43" height="42"/>
  </g>
  <g id="mask">
    <rect x="349" y="264" width="29" height="28"/>
    <rect x="383" y="264" width="28" height="28"/>
    <rect x="416" y="264" width="28" height="28"/>
    <rect x="810" y="264" width="28" height="28"/>
    <rect x="876" y="264" width="28" height="29"/>
    <rect x="283" y="297" width="28" height="28"/>
    <rect x="316" y="297" width="29" height="28"/>
    <rect x="383" y="297" width="28" height="28"/>
    <rect x="449" y="297" width="28" height="28"/>
    <rect x="778" y="297" width="28" height="28"/>
    <rect x="810" y="297" width="28" height="28"/>
    <rect x="843" y="297" width="28" height="28"/>
    <rect x="909" y="297" width="28" height="28"/>
    <rect x="942" y="297" width="29" height="28"/>
    <rect x="249" y="330" width="29" height="28"/>
    <rect x="283" y="330" width="28" height="28"/>
    <rect x="349" y="330" width="29" height="28"/>
    <rect x="416" y="330" width="28" height="28"/>
    <rect x="449" y="330" width="28" height="28"/>
    <rect x="481" y="330" width="29" height="28"/>
    <rect x="548" y="330" width="28" height="28"/>
    <rect x="613" y="330" width="28" height="28"/>
    <rect x="646" y="330" width="28" height="28"/>
    <rect x="679" y="330" width="28" height="28"/>
    <rect x="745" y="330" width="28" height="28"/>
    <rect x="810" y="330" width="28" height="28"/>
    <rect x="876" y="330" width="28" height="28"/>
    <rect x="909" y="330" width="28" height="28"/>
    <rect x="976" y="330" width="28" height="28"/>
    <rect x="217" y="363" width="28" height="27"/>
    <rect x="283" y="363" width="28" height="27"/>
    <rect x="383" y="363" width="28" height="27"/>
    <rect x="416" y="363" width="28" height="27"/>
    <rect x="481" y="363" width="29" height="27"/>
    <rect x="515" y="363" width="28" height="27"/>
    <rect x="548" y="363" width="28" height="27"/>
    <rect x="580" y="363" width="28" height="27"/>
    <rect x="613" y="363" width="28" height="27"/>
    <rect x="679" y="363" width="28" height="27"/>
    <rect x="712" y="363" width="28" height="27"/>
    <rect x="745" y="363" width="28" height="27"/>
    <rect x="778" y="363" width="28" height="27"/>
    <rect x="876" y="363" width="28" height="27"/>
    <rect x="1009" y="363" width="28" height="27"/>
    <rect x="217" y="395" width="28" height="28"/>
    <rect x="249" y="395" width="29" height="28"/>
    <rect x="383" y="395" width="28" height="28"/>
    <rect x="449" y="395" width="28" height="28"/>
    <rect x="481" y="395" width="29" height="28"/>
    <rect x="515" y="395" width="28" height="28"/>
    <rect x="548" y="395" width="28" height="28"/>
    <rect x="580" y="395" width="28" height="28"/>
    <rect x="613" y="395" width="28" height="28"/>
    <rect x="646" y="395" width="28" height="28"/>
    <rect x="679" y="395" width="28" height="28"/>
    <rect x="712" y="395" width="28" height="28"/>
    <rect x="745" y="395" width="28" height="28"/>
    <rect x="778" y="395" width="28" height="28"/>
    <rect x="810" y="395" width="28" height="28"/>
    <rect x="909" y="395" width="28" height="28"/>
    <rect x="942" y="395" width="29" height="28"/>
    <rect x="1009" y="395" width="28" height="28"/>
    <rect x="184" y="427" width="28" height="28"/>
    <rect x="217" y="427" width="28" height="28"/>
    <rect x="249" y="427" width="29" height="28"/>
    <rect x="316" y="427" width="29" height="28"/>
    <rect x="349" y="427" width="29" height="28"/>
    <rect x="383" y="427" width="28" height="28"/>
    <rect x="449" y="427" width="28" height="28"/>
    <rect x="481" y="427" width="29" height="28"/>
    <rect x="515" y="427" width="28" height="28"/>
    <rect x="580" y="427" width="28" height="28"/>
    <rect x="646" y="427" width="28" height="28"/>
    <rect x="679" y="427" width="28" height="28"/>
    <rect x="712" y="427" width="28" height="28"/>
    <rect x="745" y="427" width="28" height="28"/>
    <rect x="778" y="427" width="28" height="28"/>
    <rect x="843" y="427" width="28" height="28"/>
    <rect x="976" y="427" width="28" height="28"/>
    <rect x="1009" y="427" width="28" height="28"/>
    <rect x="1041" y="427" width="29" height="28"/>
    <rect x="184" y="460" width="29" height="28"/>
    <rect x="316" y="460" width="29" height="28"/>
    <rect x="383" y="460" width="28" height="28"/>
    <rect x="416" y="460" width="28" height="28"/>
    <rect x="481" y="460" width="29" height="28"/>
    <rect x="515" y="460" width="28" height="28"/>
    <rect x="548" y="460" width="28" height="28"/>
    <rect x="580" y="460" width="28" height="28"/>
    <rect x="613" y="460" width="28" height="28"/>
    <rect x="712" y="460" width="28" height="28"/>
    <rect x="745" y="460" width="28" height="28"/>
    <rect x="810" y="460" width="28" height="27"/>
    <rect x="843" y="460" width="28" height="28"/>
    <rect x="876" y="460" width="28" height="28"/>
    <rect x="1009" y="460" width="28" height="27"/>
    <rect x="184" y="492" width="29" height="28"/>
    <rect x="217" y="492" width="28" height="28"/>
    <rect x="283" y="492" width="28" height="28"/>
    <rect x="383" y="492" width="28" height="28"/>
    <rect x="416" y="492" width="28" height="28"/>
    <rect x="449" y="492" width="28" height="28"/>
    <rect x="481" y="492" width="29" height="28"/>
    <rect x="515" y="492" width="28" height="28"/>
    <rect x="548" y="492" width="28" height="28"/>
    <rect x="580" y="492" width="28" height="28"/>
    <rect x="613" y="492" width="28" height="28"/>
    <rect x="646" y="492" width="28" height="28"/>
    <rect x="679" y="492" width="28" height="28"/>
    <rect x="712" y="492" width="28" height="28"/>
    <rect x="745" y="492" width="28" height="28"/>
    <rect x="778" y="492" width="28" height="28"/>
    <rect x="876" y="492" width="28" height="28"/>
    <rect x="909" y="492" width="28" height="28"/>
    <rect x="942" y="492" width="29" height="28"/>
    <rect x="1041" y="492" width="29" height="28"/>
    <rect x="217" y="525" width="28" height="28"/>
    <rect x="249" y="525" width="29" height="28"/>
    <rect x="349" y="525" width="29" height="28"/>
    <rect x="383" y="525" width="28" height="28"/>
    <rect x="449" y="525" width="28" height="28"/>
    <rect x="481" y="525" width="29" height="28"/>
    <rect x="548" y="525" width="28" height="28"/>
    <rect x="580" y="525" width="28" height="28"/>
    <rect x="613" y="525" width="28" height="28"/>
    <rect x="646" y="525" width="28" height="28"/>
    <rect x="679" y="525" width="28" height="28"/>
    <rect x="745" y="525" width="28" height="28"/>
    <rect x="778" y="525" width="28" height="28"/>
    <rect x="810" y="525" width="28" height="28"/>
    <rect x="909" y="525" width="28" height="28"/>
    <rect x="976" y="525" width="28" height="28"/>
    <rect x="1009" y="525" width="28" height="28"/>
    <rect x="217" y="558" width="28" height="28"/>
    <rect x="283" y="558" width="28" height="28"/>
    <rect x="416" y="558" width="28" height="28"/>
    <rect x="449" y="558" width="28" height="28"/>
    <rect x="481" y="558" width="29" height="28"/>
    <rect x="548" y="558" width="28" height="28"/>
    <rect x="580" y="558" width="28" height="28"/>
    <rect x="613" y="558" width="28" height="28"/>
    <rect x="646" y="558" width="28" height="28"/>
    <rect x="679" y="558" width="28" height="28"/>
    <rect x="745" y="558" width="28" height="28"/>
    <rect x="778" y="558" width="28" height="28"/>
    <rect x="810" y="558" width="29" height="28"/>
    <rect x="942" y="558" width="29" height="28"/>
    <rect x="976" y="558" width="28" height="28"/>
    <rect x="1009" y="558" width="28" height="28"/>
    <rect x="217" y="591" width="28" height="28"/>
    <rect x="249" y="591" width="29" height="27"/>
    <rect x="283" y="591" width="28" height="27"/>
    <rect x="316" y="591" width="29" height="27"/>
    <rect x="416" y="591" width="28" height="27"/>
    <rect x="449" y="591" width="28" height="27"/>
    <rect x="481" y="591" width="29" height="27"/>
    <rect x="515" y="591" width="28" height="27"/>
    <rect x="548" y="591" width="28" height="27"/>
    <rect x="580" y="591" width="28" height="28"/>
    <rect x="613" y="591" width="28" height="27"/>
    <rect x="646" y="591" width="28" height="27"/>
    <rect x="679" y="591" width="28" height="27"/>
    <rect x="712" y="591" width="28" height="28"/>
    <rect x="745" y="590" width="28" height="28"/>
    <rect x="778" y="590" width="28" height="28"/>
    <rect x="810" y="591" width="29" height="27"/>
    <rect x="909" y="591" width="28" height="27"/>
    <rect x="942" y="591" width="29" height="27"/>
    <rect x="1009" y="591" width="28" height="28"/>
    <rect x="249" y="623" width="29" height="28"/>
    <rect x="316" y="623" width="29" height="28"/>
    <rect x="383" y="623" width="28" height="28"/>
    <rect x="416" y="623" width="28" height="28"/>
    <rect x="449" y="623" width="28" height="28"/>
    <rect x="515" y="623" width="28" height="28"/>
    <rect x="548" y="623" width="28" height="28"/>
    <rect x="580" y="623" width="28" height="28"/>
    <rect x="613" y="623" width="28" height="28"/>
    <rect x="646" y="623" width="28" height="28"/>
    <rect x="679" y="623" width="28" height="28"/>
    <rect x="712" y="623" width="28" height="28"/>
    <rect x="778" y="623" width="28" height="28"/>
    <rect x="810" y="623" width="29" height="28"/>
    <rect x="876" y="623" width="28" height="28"/>
    <rect x="909" y="623" width="28" height="28"/>
    <rect x="976" y="623" width="28" height="28"/>
    <rect x="283" y="656" width="28" height="27"/>
    <rect x="316" y="656" width="29" height="28"/>
    <rect x="349" y="656" width="29" height="27"/>
    <rect x="416" y="656" width="28" height="27"/>
    <rect x="449" y="656" width="28" height="28"/>
    <rect x="515" y="656" width="28" height="28"/>
    <rect x="548" y="656" width="28" height="28"/>
    <rect x="613" y="656" width="28" height="28"/>
    <rect x="646" y="656" width="28" height="27"/>
    <rect x="679" y="656" width="28" height="28"/>
    <rect x="712" y="656" width="28" height="28"/>
    <rect x="778" y="656" width="28" height="28"/>
    <rect x="810" y="656" width="28" height="28"/>
    <rect x="843" y="656" width="28" height="27"/>
    <rect x="909" y="656" width="28" height="28"/>
    <rect x="942" y="656" width="29" height="27"/>
    <rect x="316" y="688" width="29" height="28"/>
    <rect x="416" y="688" width="28" height="28"/>
    <rect x="449" y="688" width="28" height="28"/>
    <rect x="515" y="688" width="28" height="28"/>
    <rect x="548" y="688" width="28" height="28"/>
    <rect x="580" y="688" width="28" height="28"/>
    <rect x="613" y="688" width="28" height="28"/>
    <rect x="679" y="688" width="28" height="28"/>
    <rect x="712" y="688" width="28" height="28"/>
    <rect x="778" y="688" width="28" height="28"/>
    <rect x="810" y="688" width="28" height="28"/>
    <rect x="909" y="688" width="28" height="28"/>
    <rect x="349" y="721" width="29" height="28"/>
    <rect x="383" y="721" width="28" height="28"/>
    <rect x="449" y="721" width="28" height="28"/>
    <rect x="548" y="721" width="28" height="28"/>
    <rect x="580" y="721" width="28" height="28"/>
    <rect x="646" y="721" width="28" height="28"/>
    <rect x="679" y="721" width="28" height="28"/>
    <rect x="777" y="721" width="29" height="28"/>
    <rect x="810" y="721" width="28" height="28"/>
    <rect x="843" y="721" width="28" height="28"/>
    <rect x="876" y="721" width="28" height="28"/>
    <rect x="383" y="754" width="28" height="28"/>
    <rect x="416" y="754" width="28" height="28"/>
    <rect x="483" y="754" width="29" height="28"/>
    <rect x="548" y="754" width="28" height="28"/>
    <rect x="613" y="754" width="28" height="28"/>
    <rect x="646" y="754" width="28" height="28"/>
    <rect x="679" y="754" width="28" height="28"/>
    <rect x="743" y="754" width="28" height="28"/>
    <rect x="810" y="754" width="28" height="28"/>
    <rect x="843" y="754" width="28" height="28"/>
    <rect x="548" y="786" width="28" height="28"/>
    <rect x="580" y="786" width="28" height="28"/>
    <rect x="613" y="786" width="28" height="28"/>
    <rect x="646" y="786" width="28" height="28"/>
    <rect x="679" y="786" width="28" height="28"/>
    <rect x="548" y="819" width="28" height="28"/>
    <rect x="613" y="819" width="28" height="28"/>
    <rect x="679" y="819" width="28" height="28"/>
    <rect x="580" y="851" width="28" height="28"/>
    <rect x="613" y="851" width="28" height="28"/>
    <rect x="646" y="851" width="28" height="28"/>
    <rect x="745" y="851" width="28" height="28"/>
    <rect x="778" y="851" width="28" height="28"/>
    <rect x="580" y="884" width="28" height="28"/>
    <rect x="646" y="884" width="28" height="28"/>
    <rect x="679" y="884" width="28" height="28"/>
    <rect x="778" y="884" width="28" height="28"/>
    <rect x="810" y="884" width="28" height="28"/>
    <rect x="580" y="916" width="28" height="28"/>
    <rect x="613" y="917" width="28" height="27"/>
    <rect x="679" y="916" width="28" height="28"/>
    <rect x="745" y="917" width="28" height="27"/>
    <rect x="810" y="917" width="28" height="27"/>
    <rect x="613" y="949" width="28" height="28"/>
    <rect x="646" y="949" width="28" height="28"/>
    <rect x="712" y="949" width="28" height="28"/>
    <rect x="778" y="949" width="28" height="28"/>
    <rect x="646" y="982" width="28" height="28"/>
    <rect x="679" y="982" width="28" height="28"/>
    <rect x="712" y="982" width="28" height="28"/>
    <rect x="745" y="982" width="28" height="28"/>
    <polygon points="515,525 543,525 543,553 515,537"/>
    <polygon points="712,525 740,525 740,537 712,553"/>
  </g>
</svg>
